<svg id="Group_5717" data-name="Group 5717" xmlns="http://www.w3.org/2000/svg" width="13.006" height="19.768" viewBox="0 0 13.006 19.768">
  <rect id="Rectangle_166" data-name="Rectangle 166" width="1.132" height="1.132" transform="translate(9.394 5.215) rotate(-60.001)" fill="#002361"/>
  <path id="Path_1650" data-name="Path 1650" d="M328.607,110.39h0v1.132h1.132V110.39Z" transform="translate(-318.443 -108.068)" fill="#002361"/>
  <rect id="Rectangle_167" data-name="Rectangle 167" width="1.547" height="0.414" transform="matrix(0.866, -0.5, 0.5, 0.866, 8.615, 11.201)" fill="#002361"/>
  <rect id="Rectangle_168" data-name="Rectangle 168" width="0.414" height="1.547" transform="translate(12.075 5.216)" fill="#002361"/>
  <rect id="Rectangle_169" data-name="Rectangle 169" width="1.547" height="0.414" transform="translate(10.938 9.444) rotate(-59.995)" fill="#002361"/>
  <path id="Path_1651" data-name="Path 1651" d="M285.751,241.878h0v1.547h.414v-1.547Z" transform="translate(-277.908 -232.434)" fill="#002361"/>
  <rect id="Rectangle_170" data-name="Rectangle 170" width="1.387" height="0.801" transform="translate(9.393 9.862) rotate(-45)" fill="#002361"/>
  <rect id="Rectangle_171" data-name="Rectangle 171" width="1.387" height="0.801" transform="translate(9.393 6.762) rotate(-45)" fill="#002361"/>
  <path id="Path_1652" data-name="Path 1652" d="M294.548,217.361h0l-.773-.207-.359,1.339.773.207Z" transform="translate(-285.157 -209.049)" fill="#002361"/>
  <rect id="Rectangle_172" data-name="Rectangle 172" width="1.387" height="0.801" transform="translate(10.943 7.895) rotate(-75.001)" fill="#002361"/>
  <rect id="Rectangle_173" data-name="Rectangle 173" width="1.387" height="0.801" transform="translate(10.942 4.794) rotate(-75.001)" fill="#002361"/>
  <rect id="Rectangle_174" data-name="Rectangle 174" width="0.801" height="1.387" transform="translate(8.615 3.87) rotate(-74.999)" fill="#002361"/>
  <rect id="Rectangle_175" data-name="Rectangle 175" width="1.132" height="1.132" transform="translate(3.255 2.74)" fill="#002361"/>
  <rect id="Rectangle_176" data-name="Rectangle 176" width="1.132" height="1.132" transform="translate(0.93 3.663) rotate(-29.998)" fill="#002361"/>
  <rect id="Rectangle_177" data-name="Rectangle 177" width="0.414" height="1.547" transform="matrix(0.5, -0.866, 0.866, 0.5, 8.618, 0.777)" fill="#002361"/>
  <rect id="Rectangle_178" data-name="Rectangle 178" width="1.547" height="0.414" transform="matrix(0.866, -0.5, 0.5, 0.866, 2.841, 1.191)" fill="#002361"/>
  <rect id="Rectangle_179" data-name="Rectangle 179" width="1.547" height="0.414" transform="translate(5.731 0)" fill="#002361"/>
  <rect id="Rectangle_180" data-name="Rectangle 180" width="1.547" height="0.414" transform="matrix(0.866, -0.5, 0.5, 0.866, 8.62, 2.738)" fill="#002361"/>
  <rect id="Rectangle_181" data-name="Rectangle 181" width="0.801" height="1.387" transform="translate(7.07 1.19) rotate(-75.001)" fill="#002361"/>
  <rect id="Rectangle_182" data-name="Rectangle 182" width="0.801" height="1.387" transform="matrix(0.259, -0.966, 0.966, 0.259, 4.386, 2.737)" fill="#002361"/>
  <path id="Path_1653" data-name="Path 1653" d="M271.465,104.124h0l.207.773,1.339-.359-.207-.773Z" transform="translate(-264.395 -101.801)" fill="#002361"/>
  <rect id="Rectangle_183" data-name="Rectangle 183" width="1.387" height="0.801" transform="translate(4.388 0.776) rotate(-14.999)" fill="#002361"/>
  <rect id="Rectangle_184" data-name="Rectangle 184" width="1.387" height="0.801" transform="translate(1.704 2.324) rotate(-14.999)" fill="#002361"/>
  <rect id="Rectangle_185" data-name="Rectangle 185" width="0.801" height="1.387" transform="matrix(0.966, -0.259, 0.259, 0.966, 2.479, 4.083)" fill="#002361"/>
  <rect id="Rectangle_186" data-name="Rectangle 186" width="1.132" height="1.132" transform="translate(4.743 9.444) rotate(-29.999)" fill="#002361"/>
  <rect id="Rectangle_187" data-name="Rectangle 187" width="1.132" height="1.132" transform="matrix(0.5, -0.866, 0.866, 0.5, 6.297, 11.406)" fill="#002361"/>
  <rect id="Rectangle_188" data-name="Rectangle 188" width="0.414" height="1.547" transform="translate(0.515 5.211)" fill="#002361"/>
  <rect id="Rectangle_189" data-name="Rectangle 189" width="0.414" height="1.547" transform="matrix(0.5, -0.866, 0.866, 0.5, 2.838, 10.786)" fill="#002361"/>
  <rect id="Rectangle_190" data-name="Rectangle 190" width="0.414" height="1.547" transform="translate(0.928 8.312) rotate(-30)" fill="#002361"/>
  <path id="Path_1654" data-name="Path 1654" d="M166.318,154.122h0l-1.339-.773-.207.359,1.339.773Z" transform="translate(-163.48 -148.699)" fill="#002361"/>
  <path id="Path_1655" data-name="Path 1655" d="M159.271,189.913l-.359-1.339-.773.2.359,1.339Z" transform="translate(-157.206 -182.017)" fill="#002361"/>
  <rect id="Rectangle_191" data-name="Rectangle 191" width="0.801" height="1.387" transform="translate(3.612 8.312) rotate(-14.999)" fill="#002361"/>
  <rect id="Rectangle_192" data-name="Rectangle 192" width="0.801" height="1.387" transform="translate(2.065 6.345) rotate(-45)" fill="#002361"/>
  <rect id="Rectangle_193" data-name="Rectangle 193" width="0.801" height="1.387" transform="translate(2.064 9.444) rotate(-45)" fill="#002361"/>
  <rect id="Rectangle_194" data-name="Rectangle 194" width="0.801" height="1.387" transform="translate(4.743 10.991) rotate(-45)" fill="#002361"/>
  <rect id="Rectangle_195" data-name="Rectangle 195" width="1.387" height="0.801" transform="matrix(0.707, -0.707, 0.707, 0.707, 6.297, 9.858)" fill="#002361"/>
  <rect id="Rectangle_196" data-name="Rectangle 196" width="1.132" height="1.132" transform="translate(9.393 8.309) rotate(-60.001)" fill="#002361"/>
  <rect id="Rectangle_197" data-name="Rectangle 197" width="1.547" height="0.414" transform="translate(8.259 10.989) rotate(-60)" fill="#002361"/>
  <rect id="Rectangle_198" data-name="Rectangle 198" width="1.547" height="0.414" transform="translate(10.938 6.344) rotate(-59.995)" fill="#002361"/>
  <path id="Path_1656" data-name="Path 1656" d="M251.624,89.433h-1.137v1.132h1.132V89.433Z" transform="translate(-244.553 -88.245)" fill="#002361"/>
  <rect id="Rectangle_199" data-name="Rectangle 199" width="1.547" height="0.414" transform="translate(8.41 1.552)" fill="#002361"/>
  <path id="Path_1657" data-name="Path 1657" d="M198.653,96.06H197.1v.42h1.547v-.42Z" transform="translate(-194.059 -94.513)" fill="#002361"/>
  <rect id="Rectangle_200" data-name="Rectangle 200" width="1.132" height="1.132" transform="translate(2.065 7.898) rotate(-29.999)" fill="#002361"/>
  <rect id="Rectangle_201" data-name="Rectangle 201" width="0.414" height="1.547" transform="translate(0.932 5.212) rotate(-30)" fill="#002361"/>
  <rect id="Rectangle_202" data-name="Rectangle 202" width="0.414" height="1.547" transform="matrix(0.866, -0.5, 0.5, 0.866, 3.612, 9.86)" fill="#002361"/>
  <path id="Path_1658" data-name="Path 1658" d="M182.987,359.629a1.38,1.38,0,1,0-1.38,1.38.96.96,0,0,0,.121-.005.792.792,0,0,1,0-.111.083.083,0,1,0-.116-.116,1.165,1.165,0,1,1,.359-.061.949.949,0,0,0-.015.172v.071a1.367,1.367,0,0,0,1.036-1.329" transform="translate(-178.099 -342.503)" fill="#0081c8"/>
  <path id="Path_1659" data-name="Path 1659" d="M293.534,359.541a1.38,1.38,0,0,1-2.755.121,1.242,1.242,0,0,1,.238.051,1.154,1.154,0,1,0-.01-.248,1.813,1.813,0,0,0-.227-.04,1.38,1.38,0,0,1,2.755.116" transform="translate(-282.663 -342.415)" fill="#ee2e4e"/>
  <path id="Path_1660" data-name="Path 1660" d="M265.587,383.052a1.151,1.151,0,1,1-1.506-1.168.952.952,0,0,0,.01-.172v-.071a1.38,1.38,0,1,0,1.724,1.446,1.067,1.067,0,0,1-.227-.035m-1.147-1.223a1.149,1.149,0,0,1,1.137.981,1.244,1.244,0,0,0,.238.051,1.377,1.377,0,0,0-1.375-1.259.965.965,0,0,0-.121.005.78.78,0,0,1,.005.111.081.081,0,1,0,.116.111" transform="translate(-256.446 -364.59)" fill="#00a54f"/>
  <path id="Path_1661" data-name="Path 1661" d="M210.574,383.032a1.38,1.38,0,1,1-1.724-1.446v.071a.944.944,0,0,1-.015.172A1.151,1.151,0,1,0,210.341,383a2.022,2.022,0,0,0,.233.035m-1.5-1.254a.971.971,0,0,0,.005-.121.818.818,0,0,0-.005-.111.984.984,0,0,1,.121-.005,1.377,1.377,0,0,1,1.375,1.259,1.238,1.238,0,0,1-.238-.05,1.149,1.149,0,0,0-1.137-.981c-.04.005-.081.005-.121.01" transform="translate(-204.196 -364.533)" fill="#fbb131"/>
  <path id="Path_1662" data-name="Path 1662" d="M236.936,360.767a1.149,1.149,0,0,1-1.137-.981,1.242,1.242,0,0,0-.238-.05,1.377,1.377,0,0,0,1.375,1.259.983.983,0,0,0,.121-.005.788.788,0,0,1-.005-.111.981.981,0,0,1,.005-.121.492.492,0,0,1-.121.01m0-2.527a1.382,1.382,0,0,0-1.375,1.269,1.19,1.19,0,0,1,.227.04,1.149,1.149,0,1,1,1.5,1.168.943.943,0,0,0-.015.172v.071a1.382,1.382,0,0,0-.339-2.719" transform="translate(-230.436 -342.494)" fill="#231f20"/>
  <path id="Path_1663" data-name="Path 1663" d="M141.635,309.676h-.288v-1.527h-.42v-.268h1.127v.268h-.42Z" transform="translate(-140.927 -294.863)" fill="#002361"/>
  <path id="Path_1664" data-name="Path 1664" d="M199.6,309.677h-.344l-.43-.773-.162.227v.546h-.288v-1.789h.288v.8h.005l.546-.809h.329l-.526.778Z" transform="translate(-195.269 -294.864)" fill="#002361"/>
  <path id="Path_1665" data-name="Path 1665" d="M225.541,309.676h-.288V308.9l-.475-1.021h.3l.318.7h.01l.318-.7h.3l-.475,1.021v.773Z" transform="translate(-220.237 -294.863)" fill="#002361"/>
  <path id="Path_1666" data-name="Path 1666" d="M287.042,309.587h-1.006v-.258l.005-.005.667-.859a.252.252,0,0,0,.056-.167.225.225,0,0,0-.379-.172.3.3,0,0,0-.071.2v.015h-.278v-.015a.582.582,0,0,1,.147-.394.458.458,0,0,1,.344-.147.491.491,0,0,1,.369.147.506.506,0,0,1,.142.374.519.519,0,0,1-.126.344l-.505.657.005.005h.632v.273Z" transform="translate(-278.177 -294.775)" fill="#002361"/>
  <path id="Path_1667" data-name="Path 1667" d="M338.518,309.587h-1.006v-.258l.005-.005.667-.859a.252.252,0,0,0,.056-.167.226.226,0,0,0-.217-.233.222.222,0,0,0-.162.061.3.3,0,0,0-.071.2v.015h-.278v-.015a.582.582,0,0,1,.147-.394.458.458,0,0,1,.344-.147.483.483,0,0,1,.369.147.507.507,0,0,1,.142.374.519.519,0,0,1-.126.344l-.505.657.005.005h.632v.273Z" transform="translate(-326.865 -294.775)" fill="#002361"/>
  <path id="Path_1668" data-name="Path 1668" d="M252.106,307.828a.284.284,0,0,0-.288.3v.647a.289.289,0,1,0,.576,0v-.647a.281.281,0,0,0-.288-.3m0,1.537a.532.532,0,0,1-.561-.546v-.738a.561.561,0,0,1,1.122,0v.738a.535.535,0,0,1-.561.546" transform="translate(-245.554 -294.54)" fill="#002361"/>
  <path id="Path_1669" data-name="Path 1669" d="M168.574,307.828a.284.284,0,0,0-.288.3v.647a.289.289,0,1,0,.576,0v-.647a.281.281,0,0,0-.288-.3m0,1.537a.532.532,0,0,1-.561-.546v-.738a.561.561,0,0,1,1.122,0v.738a.535.535,0,0,1-.561.546" transform="translate(-166.546 -294.54)" fill="#002361"/>
  <path id="Path_1670" data-name="Path 1670" d="M312.713,307.916c-.187,0-.222.141-.222.263v.733c0,.177.076.263.222.263s.222-.086.222-.263v-.733c0-.121-.035-.263-.222-.263m0,1.537a.485.485,0,0,1-.5-.521v-.778a.5.5,0,1,1,1,0v.778a.485.485,0,0,1-.5.521" transform="translate(-302.937 -294.628)" fill="#002361"/>
  <path id="Path_1671" data-name="Path 1671" d="M363.093,307.916c-.187,0-.222.141-.222.263v.733c0,.177.071.263.222.263s.222-.086.222-.263v-.733c0-.121-.035-.263-.222-.263m0,1.537a.485.485,0,0,1-.5-.521v-.778a.5.5,0,1,1,1,0v.778a.485.485,0,0,1-.5.521" transform="translate(-350.588 -294.628)" fill="#002361"/>
  <path id="Path_1672" data-name="Path 1672" d="M341.531,258.716h.131v.334h.045v-.334h.131v-.03h-.3v.03Z" transform="translate(-330.667 -248.332)" fill="#002361"/>
  <path id="Path_1673" data-name="Path 1673" d="M348.269,258.593l-.106.263h-.005l-.116-.263h-.051v.369h.035v-.288l.1.232h.045l.1-.238h0v.3h.036V258.6h-.04Z" transform="translate(-336.777 -248.244)" fill="#002361"/>
</svg>
