<svg xmlns="http://www.w3.org/2000/svg" width="20" height="22.755" viewBox="0 0 20 22.755">
  <g id="Icona" transform="translate(-31 0)">
    <g id="Group_5720" data-name="Group 5720" transform="translate(31 0)">
      <g id="Group_5719" data-name="Group 5719" transform="translate(0)">
        <path id="Path_1674" data-name="Path 1674" d="M47.282,7.039a.667.667,0,0,0-.949.6V8.755A.669.669,0,0,1,45,8.863C44.462,5.5,41.992,0,41,0s-3.462,5.5-4,8.859a.669.669,0,0,1-1.329-.1V7.643a.667.667,0,0,0-.949-.6C32.449,8.1,31,12.711,31,15.422c0,4.318,4.112,7.333,10,7.333s10-3.016,10-7.333c0-2.711-1.449-7.324-3.718-8.383Z" transform="translate(-31 0)" fill="#fff"/>
      </g>
    </g>
    <g id="Group_5722" data-name="Group 5722" transform="translate(37.666 9.304)">
      <g id="Group_5721" data-name="Group 5721" transform="translate(0 0)">
        <path id="Path_1675" data-name="Path 1675" d="M6.567,2.983A.667.667,0,0,0,6,2.666H4.521L3.98.505A.666.666,0,0,0,2.737.368L.07,5.7a.667.667,0,0,0,.6.965H2.146l.541,2.161a.666.666,0,0,0,1.243.137L6.6,3.631A.665.665,0,0,0,6.567,2.983Z" fill="#f27023"/>
      </g>
    </g>
  </g>
</svg>
