<svg id="Layer_2" data-name="Layer 2" xmlns="http://www.w3.org/2000/svg" width="24.479" height="24.478" viewBox="0 0 24.479 24.478">
  <path id="Path_1627" data-name="Path 1627" d="M14.9,14.791a4.9,4.9,0,1,1,4.9-4.9,4.9,4.9,0,0,1-4.9,4.9Zm0-8.159A3.264,3.264,0,1,0,18.159,9.9,3.264,3.264,0,0,0,14.9,6.632Z" transform="translate(-2.647 -1.735)" fill="#fff"/>
  <path id="Path_1628" data-name="Path 1628" d="M13.771,28.747a12.239,12.239,0,0,1-9.456-4.479l-.424-.522.424-.514a12.239,12.239,0,0,1,18.913,0l.424.514-.424.522A12.239,12.239,0,0,1,13.771,28.747ZM6.028,23.754a10.607,10.607,0,0,0,15.5,0,10.607,10.607,0,0,0-15.5,0Z" transform="translate(-1.523 -4.269)" fill="#fff"/>
  <path id="Path_1629" data-name="Path 1629" d="M13.237,25.477A12.239,12.239,0,1,1,22.693,21,12.239,12.239,0,0,1,13.237,25.477Zm0-22.846A10.607,10.607,0,1,0,23.844,13.239,10.607,10.607,0,0,0,13.237,2.632Z" transform="translate(-0.989 -0.999)" fill="#fff"/>
  <path id="Path_1630" data-name="Path 1630" d="M5.18,23.913s8.216,9.179,16.579.914l1.077-.914s-6.984-7.245-14.075-2.9Z" transform="translate(-1.76 -4.428)" fill="#fff"/>
  <ellipse id="Ellipse_5" data-name="Ellipse 5" cx="4.08" cy="4.08" rx="4.08" ry="4.08" transform="translate(8.169 4.08)" fill="#fff"/>
</svg>
